<?xml version="1.0" standalone="no"?>
<!DOCTYPE svg PUBLIC "-//W3C//DTD SVG 20010904//EN"
 "http://www.w3.org/TR/2001/REC-SVG-20010904/DTD/svg10.dtd">
<svg version="1.0" xmlns="http://www.w3.org/2000/svg"
 width="300.000000pt" height="225.000000pt" viewBox="0 0 300.000000 225.000000"
 preserveAspectRatio="xMidYMid meet">
<metadata>
Created by potrace 1.10, written by Peter Selinger 2001-2011
</metadata>
<g transform="translate(0.000000,225.000000) scale(0.100000,-0.100000)"
fill="#000000" stroke="none">
<path d="M1537 1714 c-2 -2 -52 -5 -112 -8 -63 -2 -128 -11 -152 -20 -24 -8
-43 -13 -43 -11 0 3 -37 -14 -82 -38 -150 -76 -252 -204 -294 -367 -22 -88
-15 -243 14 -325 20 -53 34 -80 91 -170 12 -19 9 -28 -21 -75 -20 -30 -43 -71
-52 -90 l-17 -35 22 25 c11 14 35 51 51 84 l29 58 32 -28 c18 -16 33 -30 35
-30 2 -1 -11 -29 -27 -63 l-31 -61 -53 -1 c-52 -2 -52 -2 -12 -8 54 -9 85 8
114 61 13 23 25 45 27 47 2 2 19 -7 38 -19 31 -18 35 -26 30 -47 -5 -18 -3
-24 5 -19 6 4 11 16 11 27 0 22 10 21 79 -7 150 -62 367 -65 532 -9 68 23 89
20 89 -12 0 -7 8 -16 18 -22 22 -12 240 -12 247 0 4 5 -17 9 -48 9 l-54 0
-254 475 c-140 261 -256 474 -259 474 -6 1 -324 -595 -328 -615 -8 -34 16 -9
47 51 l33 65 182 0 182 0 22 -39 c12 -21 22 -42 22 -45 0 -4 -80 -6 -177 -5
l-178 1 -28 -50 -28 -51 46 -20 c123 -55 284 -53 416 3 11 5 20 -4 32 -29 10
-20 15 -41 12 -46 -3 -5 -38 -19 -78 -31 -93 -29 -253 -31 -342 -4 -195 58
-323 195 -343 369 -22 178 46 326 194 428 47 32 163 78 197 79 16 0 16 -2 1
-25 -9 -14 -24 -25 -33 -25 -12 0 -13 -2 -3 -8 22 -15 3 -36 -56 -64 -163 -76
-240 -231 -202 -408 7 -33 15 -60 19 -60 3 1 92 159 198 353 l191 352 66 -2
c195 -7 386 -112 487 -269 23 -35 46 -64 50 -64 25 0 3 -17 -41 -31 l-50 -16
-29 51 c-36 64 -122 146 -187 179 -97 48 -251 84 -242 56 2 -8 18 -15 34 -17
100 -9 229 -70 298 -140 42 -43 95 -117 96 -133 0 -4 -22 -15 -50 -25 -27 -10
-50 -22 -50 -26 0 -15 45 -8 85 12 22 11 46 20 54 20 32 0 101 42 101 61 0 34
-79 146 -145 207 -67 62 -154 109 -245 135 -74 21 -176 38 -183 31z m-105 -69
c-17 -30 -36 -48 -52 -51 -132 -27 -213 -66 -290 -140 -95 -91 -140 -196 -140
-330 0 -289 251 -491 585 -471 77 4 147 21 215 50 10 5 22 -5 38 -33 l22 -40
-37 -15 c-90 -38 -157 -50 -288 -49 -149 0 -218 15 -330 73 -221 114 -340 353
-292 586 50 242 235 409 504 455 98 16 96 17 65 -35z m243 -522 c99 -185 208
-388 241 -450 l62 -113 -64 0 c-52 0 -62 3 -58 15 4 8 -73 162 -175 355 -100
186 -181 344 -181 350 0 32 -41 -32 -98 -152 -2 -5 30 -8 72 -8 l76 0 20 -40
c11 -21 20 -42 20 -45 0 -3 -75 -5 -166 -5 -103 0 -164 4 -162 10 7 23 223
420 228 420 3 -1 86 -152 185 -337z m-456 111 c-50 -99 -96 -183 -101 -189
-36 -39 -35 145 1 216 41 79 160 183 184 160 5 -5 -33 -89 -84 -187z m294 -49
c9 -19 13 -36 9 -36 -28 -5 -64 -4 -68 3 -6 9 24 68 34 68 5 0 16 -16 25 -35z
m171 -305 c26 -45 21 -56 -41 -76 -86 -28 -261 -27 -326 3 l-47 22 17 35 c19
41 16 40 239 42 l141 2 17 -28z"/>
<path d="M923 1130 c0 -36 2 -50 4 -32 2 17 2 47 0 65 -2 17 -4 3 -4 -33z"/>
<path d="M905 1038 c2 -26 11 -62 20 -80 8 -18 13 -24 9 -13 -3 11 -12 47 -20
80 -13 56 -14 57 -9 13z"/>
<path d="M977 853 c9 -18 40 -54 67 -80 l50 -48 -49 55 c-28 30 -58 66 -68 80
-17 24 -17 24 0 -7z"/>
<path d="M1072 713 c10 -11 37 -30 60 -43 55 -30 48 -22 -22 25 -30 20 -47 28
-38 18z"/>
<path d="M1453 603 c20 -2 54 -2 75 0 20 2 3 4 -38 4 -41 0 -58 -2 -37 -4z"/>
<path d="M1620 1130 c17 -33 33 -60 35 -60 3 0 -8 27 -25 60 -17 33 -33 60
-35 60 -3 0 8 -27 25 -60z"/>
<path d="M1655 1110 c28 -55 30 -64 13 -54 -12 8 118 -244 135 -261 5 -5 -20
47 -57 116 -68 130 -74 145 -55 134 5 -4 -4 20 -21 54 -16 34 -33 61 -35 61
-3 0 6 -22 20 -50z"/>
<path d="M1630 1060 c17 -33 33 -60 35 -60 3 0 -8 27 -25 60 -17 33 -33 60
-35 60 -3 0 8 -27 25 -60z"/>
<path d="M1700 930 c17 -33 33 -60 35 -60 3 0 -8 27 -25 60 -17 33 -33 60 -35
60 -3 0 8 -27 25 -60z"/>
<path d="M1737 1471 c29 -16 72 -43 95 -61 l43 -32 -40 37 c-36 34 -123 85
-142 85 -4 0 16 -13 44 -29z"/>
<path d="M1790 1473 c14 -10 43 -34 65 -53 l40 -34 -32 35 c-18 19 -47 42 -65
52 -32 17 -32 17 -8 0z"/>
<path d="M1696 1308 c52 -95 94 -176 94 -180 0 -5 80 -8 177 -8 138 0 174 -3
165 -12 -7 -7 -12 -26 -12 -43 0 -68 -39 -173 -94 -252 l-36 -52 51 -88 c55
-95 66 -110 74 -101 4 3 -14 44 -39 90 -25 47 -46 90 -46 97 0 7 13 31 28 54
76 112 118 302 73 327 -11 5 -84 10 -164 10 -125 0 -146 2 -159 18 -22 25
-128 223 -128 238 0 20 10 17 55 -13 49 -32 90 -78 106 -116 8 -18 15 -25 22
-18 31 31 -62 136 -168 187 -38 19 -75 34 -81 34 -6 0 31 -78 82 -172z"/>
<path d="M1290 1240 c-17 -33 -28 -60 -25 -60 2 0 18 27 35 60 17 33 28 60 25
60 -2 0 -18 -27 -35 -60z"/>
<path d="M1850 1023 c0 -9 21 -13 70 -13 39 0 70 -3 70 -6 0 -4 -14 -35 -32
-71 -22 -44 -28 -67 -21 -74 12 -12 83 120 83 155 0 20 -5 21 -85 21 -61 0
-85 -3 -85 -12z"/>
<path d="M1468 993 c23 -2 59 -2 80 0 20 2 1 4 -43 4 -44 0 -61 -2 -37 -4z"/>
<path d="M1438 963 c34 -2 90 -2 125 0 34 2 6 3 -63 3 -69 0 -97 -1 -62 -3z"/>
<path d="M1448 943 c34 -2 88 -2 120 0 31 2 3 3 -63 3 -66 0 -92 -1 -57 -3z"/>
<path d="M1012 555 c7 -7 97 -9 105 -2 3 4 -20 7 -52 7 -32 0 -56 -2 -53 -5z"/>
</g>
</svg>
